<svg width="281" height="33" viewBox="0 0 281 33" fill="none" xmlns="http://www.w3.org/2000/svg">
<path d="M63 32.8691H0V0H21.9131V16.4346H41.0869V0H63V32.8691Z" fill="url(#paint0_linear_0_1)"/>
<path d="M78.75 7.9375L82.7109 16.082L86.6719 7.9375H89.9297L84.1875 18.7188V25H81.2227V18.7188L75.4805 7.9375H78.75ZM90.1992 18.8008V18.5312C90.1992 17.6172 90.332 16.7695 90.5977 15.9883C90.8633 15.1992 91.2461 14.5156 91.7461 13.9375C92.2539 13.3516 92.8711 12.8984 93.5977 12.5781C94.332 12.25 95.1602 12.0859 96.082 12.0859C97.0117 12.0859 97.8398 12.25 98.5664 12.5781C99.3008 12.8984 99.9219 13.3516 100.43 13.9375C100.938 14.5156 101.324 15.1992 101.59 15.9883C101.855 16.7695 101.988 17.6172 101.988 18.5312V18.8008C101.988 19.7148 101.855 20.5625 101.59 21.3438C101.324 22.125 100.938 22.8086 100.43 23.3945C99.9219 23.9727 99.3047 24.4258 98.5781 24.7539C97.8516 25.0742 97.0273 25.2344 96.1055 25.2344C95.1758 25.2344 94.3438 25.0742 93.6094 24.7539C92.8828 24.4258 92.2656 23.9727 91.7578 23.3945C91.25 22.8086 90.8633 22.125 90.5977 21.3438C90.332 20.5625 90.1992 19.7148 90.1992 18.8008ZM93.0234 18.5312V18.8008C93.0234 19.3711 93.082 19.9102 93.1992 20.418C93.3164 20.9258 93.5 21.3711 93.75 21.7539C94 22.1367 94.3203 22.4375 94.7109 22.6562C95.1016 22.875 95.5664 22.9844 96.1055 22.9844C96.6289 22.9844 97.082 22.875 97.4648 22.6562C97.8555 22.4375 98.1758 22.1367 98.4258 21.7539C98.6758 21.3711 98.8594 20.9258 98.9766 20.418C99.1016 19.9102 99.1641 19.3711 99.1641 18.8008V18.5312C99.1641 17.9688 99.1016 17.4375 98.9766 16.9375C98.8594 16.4297 98.6719 15.9805 98.4141 15.5898C98.1641 15.1992 97.8438 14.8945 97.4531 14.6758C97.0703 14.4492 96.6133 14.3359 96.082 14.3359C95.5508 14.3359 95.0898 14.4492 94.6992 14.6758C94.3164 14.8945 94 15.1992 93.75 15.5898C93.5 15.9805 93.3164 16.4297 93.1992 16.9375C93.082 17.4375 93.0234 17.9688 93.0234 18.5312ZM107.191 14.7344V25H104.367V12.3203H107.062L107.191 14.7344ZM111.07 12.2383L111.047 14.8633C110.875 14.832 110.688 14.8086 110.484 14.793C110.289 14.7773 110.094 14.7695 109.898 14.7695C109.414 14.7695 108.988 14.8398 108.621 14.9805C108.254 15.1133 107.945 15.3086 107.695 15.5664C107.453 15.8164 107.266 16.1211 107.133 16.4805C107 16.8398 106.922 17.2422 106.898 17.6875L106.254 17.7344C106.254 16.9375 106.332 16.1992 106.488 15.5195C106.645 14.8398 106.879 14.2422 107.191 13.7266C107.512 13.2109 107.91 12.8086 108.387 12.5195C108.871 12.2305 109.43 12.0859 110.062 12.0859C110.234 12.0859 110.418 12.1016 110.613 12.1328C110.816 12.1641 110.969 12.1992 111.07 12.2383ZM115.688 7V25H112.852V7H115.688ZM123.562 12.3203L118.043 18.4375L115.02 21.5312L114.281 19.1406L116.566 16.3164L120.152 12.3203H123.562ZM120.762 25L116.648 19.0469L118.43 17.0664L124.031 25H120.762ZM132.469 21.5664C132.469 21.2852 132.398 21.0312 132.258 20.8047C132.117 20.5703 131.848 20.3594 131.449 20.1719C131.059 19.9844 130.48 19.8125 129.715 19.6562C129.043 19.5078 128.426 19.332 127.863 19.1289C127.309 18.918 126.832 18.6641 126.434 18.3672C126.035 18.0703 125.727 17.7188 125.508 17.3125C125.289 16.9062 125.18 16.4375 125.18 15.9062C125.18 15.3906 125.293 14.9023 125.52 14.4414C125.746 13.9805 126.07 13.5742 126.492 13.2227C126.914 12.8711 127.426 12.5938 128.027 12.3906C128.637 12.1875 129.316 12.0859 130.066 12.0859C131.129 12.0859 132.039 12.2656 132.797 12.625C133.562 12.9766 134.148 13.457 134.555 14.0664C134.961 14.668 135.164 15.3477 135.164 16.1055H132.34C132.34 15.7695 132.254 15.457 132.082 15.168C131.918 14.8711 131.668 14.6328 131.332 14.4531C130.996 14.2656 130.574 14.1719 130.066 14.1719C129.582 14.1719 129.18 14.25 128.859 14.4062C128.547 14.5547 128.312 14.75 128.156 14.9922C128.008 15.2344 127.934 15.5 127.934 15.7891C127.934 16 127.973 16.1914 128.051 16.3633C128.137 16.5273 128.277 16.6797 128.473 16.8203C128.668 16.9531 128.934 17.0781 129.27 17.1953C129.613 17.3125 130.043 17.4258 130.559 17.5352C131.527 17.7383 132.359 18 133.055 18.3203C133.758 18.6328 134.297 19.0391 134.672 19.5391C135.047 20.0312 135.234 20.6562 135.234 21.4141C135.234 21.9766 135.113 22.4922 134.871 22.9609C134.637 23.4219 134.293 23.8242 133.84 24.168C133.387 24.5039 132.844 24.7656 132.211 24.9531C131.586 25.1406 130.883 25.2344 130.102 25.2344C128.953 25.2344 127.98 25.0312 127.184 24.625C126.387 24.2109 125.781 23.6836 125.367 23.043C124.961 22.3945 124.758 21.7227 124.758 21.0273H127.488C127.52 21.5508 127.664 21.9688 127.922 22.2812C128.188 22.5859 128.516 22.8086 128.906 22.9492C129.305 23.082 129.715 23.1484 130.137 23.1484C130.645 23.1484 131.07 23.082 131.414 22.9492C131.758 22.8086 132.02 22.6211 132.199 22.3867C132.379 22.1445 132.469 21.8711 132.469 21.5664ZM140.496 7V25H137.684V7H140.496ZM140.004 18.1914L139.09 18.1797C139.098 17.3047 139.219 16.4961 139.453 15.7539C139.695 15.0117 140.031 14.3672 140.461 13.8203C140.898 13.2656 141.422 12.8398 142.031 12.543C142.641 12.2383 143.316 12.0859 144.059 12.0859C144.684 12.0859 145.246 12.1719 145.746 12.3438C146.254 12.5156 146.691 12.793 147.059 13.1758C147.426 13.5508 147.703 14.043 147.891 14.6523C148.086 15.2539 148.184 15.9883 148.184 16.8555V25H145.348V16.832C145.348 16.2227 145.258 15.7383 145.078 15.3789C144.906 15.0195 144.652 14.7617 144.316 14.6055C143.98 14.4414 143.57 14.3594 143.086 14.3594C142.578 14.3594 142.129 14.4609 141.738 14.6641C141.355 14.8672 141.035 15.1445 140.777 15.4961C140.52 15.8477 140.324 16.2539 140.191 16.7148C140.066 17.1758 140.004 17.668 140.004 18.1914ZM154.066 12.3203V25H151.23V12.3203H154.066ZM151.043 8.99219C151.043 8.5625 151.184 8.20703 151.465 7.92578C151.754 7.63672 152.152 7.49219 152.66 7.49219C153.16 7.49219 153.555 7.63672 153.844 7.92578C154.133 8.20703 154.277 8.5625 154.277 8.99219C154.277 9.41406 154.133 9.76562 153.844 10.0469C153.555 10.3281 153.16 10.4688 152.66 10.4688C152.152 10.4688 151.754 10.3281 151.465 10.0469C151.184 9.76562 151.043 9.41406 151.043 8.99219ZM159.996 14.7344V25H157.172V12.3203H159.867L159.996 14.7344ZM163.875 12.2383L163.852 14.8633C163.68 14.832 163.492 14.8086 163.289 14.793C163.094 14.7773 162.898 14.7695 162.703 14.7695C162.219 14.7695 161.793 14.8398 161.426 14.9805C161.059 15.1133 160.75 15.3086 160.5 15.5664C160.258 15.8164 160.07 16.1211 159.938 16.4805C159.805 16.8398 159.727 17.2422 159.703 17.6875L159.059 17.7344C159.059 16.9375 159.137 16.1992 159.293 15.5195C159.449 14.8398 159.684 14.2422 159.996 13.7266C160.316 13.2109 160.715 12.8086 161.191 12.5195C161.676 12.2305 162.234 12.0859 162.867 12.0859C163.039 12.0859 163.223 12.1016 163.418 12.1328C163.621 12.1641 163.773 12.1992 163.875 12.2383ZM171 25.2344C170.062 25.2344 169.215 25.082 168.457 24.7773C167.707 24.4648 167.066 24.0312 166.535 23.4766C166.012 22.9219 165.609 22.2695 165.328 21.5195C165.047 20.7695 164.906 19.9609 164.906 19.0938V18.625C164.906 17.6328 165.051 16.7344 165.34 15.9297C165.629 15.125 166.031 14.4375 166.547 13.8672C167.062 13.2891 167.672 12.8477 168.375 12.543C169.078 12.2383 169.84 12.0859 170.66 12.0859C171.566 12.0859 172.359 12.2383 173.039 12.543C173.719 12.8477 174.281 13.2773 174.727 13.832C175.18 14.3789 175.516 15.0312 175.734 15.7891C175.961 16.5469 176.074 17.3828 176.074 18.2969V19.5039H166.277V17.4766H173.285V17.2539C173.27 16.7461 173.168 16.2695 172.98 15.8242C172.801 15.3789 172.523 15.0195 172.148 14.7461C171.773 14.4727 171.273 14.3359 170.648 14.3359C170.18 14.3359 169.762 14.4375 169.395 14.6406C169.035 14.8359 168.734 15.1211 168.492 15.4961C168.25 15.8711 168.062 16.3242 167.93 16.8555C167.805 17.3789 167.742 17.9688 167.742 18.625V19.0938C167.742 19.6484 167.816 20.1641 167.965 20.6406C168.121 21.1094 168.348 21.5195 168.645 21.8711C168.941 22.2227 169.301 22.5 169.723 22.7031C170.145 22.8984 170.625 22.9961 171.164 22.9961C171.844 22.9961 172.449 22.8594 172.98 22.5859C173.512 22.3125 173.973 21.9258 174.363 21.4258L175.852 22.8672C175.578 23.2656 175.223 23.6484 174.785 24.0156C174.348 24.375 173.812 24.668 173.18 24.8945C172.555 25.1211 171.828 25.2344 171 25.2344ZM188.812 21.168L192.211 7.9375H193.992L193.793 11.3477L190.16 25H188.309L188.812 21.168ZM186.27 7.9375L189.023 21.0625L189.27 25H187.301L183.352 7.9375H186.27ZM197.848 21.0273L200.566 7.9375H203.496L199.547 25H197.578L197.848 21.0273ZM194.684 7.9375L198.047 21.2031L198.539 25H196.688L193.113 11.3477L192.926 7.9375H194.684ZM210.609 25.2344C209.672 25.2344 208.824 25.082 208.066 24.7773C207.316 24.4648 206.676 24.0312 206.145 23.4766C205.621 22.9219 205.219 22.2695 204.938 21.5195C204.656 20.7695 204.516 19.9609 204.516 19.0938V18.625C204.516 17.6328 204.66 16.7344 204.949 15.9297C205.238 15.125 205.641 14.4375 206.156 13.8672C206.672 13.2891 207.281 12.8477 207.984 12.543C208.688 12.2383 209.449 12.0859 210.27 12.0859C211.176 12.0859 211.969 12.2383 212.648 12.543C213.328 12.8477 213.891 13.2773 214.336 13.832C214.789 14.3789 215.125 15.0312 215.344 15.7891C215.57 16.5469 215.684 17.3828 215.684 18.2969V19.5039H205.887V17.4766H212.895V17.2539C212.879 16.7461 212.777 16.2695 212.59 15.8242C212.41 15.3789 212.133 15.0195 211.758 14.7461C211.383 14.4727 210.883 14.3359 210.258 14.3359C209.789 14.3359 209.371 14.4375 209.004 14.6406C208.645 14.8359 208.344 15.1211 208.102 15.4961C207.859 15.8711 207.672 16.3242 207.539 16.8555C207.414 17.3789 207.352 17.9688 207.352 18.625V19.0938C207.352 19.6484 207.426 20.1641 207.574 20.6406C207.73 21.1094 207.957 21.5195 208.254 21.8711C208.551 22.2227 208.91 22.5 209.332 22.7031C209.754 22.8984 210.234 22.9961 210.773 22.9961C211.453 22.9961 212.059 22.8594 212.59 22.5859C213.121 22.3125 213.582 21.9258 213.973 21.4258L215.461 22.8672C215.188 23.2656 214.832 23.6484 214.395 24.0156C213.957 24.375 213.422 24.668 212.789 24.8945C212.164 25.1211 211.438 25.2344 210.609 25.2344ZM217.898 7H220.723V22.293L220.453 25H217.898V7ZM228.996 18.543V18.7891C228.996 19.7266 228.891 20.5898 228.68 21.3789C228.477 22.1602 228.164 22.8398 227.742 23.418C227.328 23.9961 226.812 24.4453 226.195 24.7656C225.586 25.0781 224.879 25.2344 224.074 25.2344C223.285 25.2344 222.598 25.0859 222.012 24.7891C221.426 24.4922 220.934 24.0703 220.535 23.5234C220.145 22.9766 219.828 22.3242 219.586 21.5664C219.344 20.8086 219.172 19.9727 219.07 19.0586V18.2734C219.172 17.3516 219.344 16.5156 219.586 15.7656C219.828 15.0078 220.145 14.3555 220.535 13.8086C220.934 13.2539 221.422 12.8281 222 12.5312C222.586 12.2344 223.27 12.0859 224.051 12.0859C224.863 12.0859 225.578 12.2422 226.195 12.5547C226.82 12.8672 227.34 13.3125 227.754 13.8906C228.168 14.4609 228.477 15.1406 228.68 15.9297C228.891 16.7188 228.996 17.5898 228.996 18.543ZM226.172 18.7891V18.543C226.172 17.9727 226.125 17.4375 226.031 16.9375C225.938 16.4297 225.781 15.9844 225.562 15.6016C225.352 15.2188 225.062 14.918 224.695 14.6992C224.336 14.4727 223.887 14.3594 223.348 14.3594C222.848 14.3594 222.418 14.4453 222.059 14.6172C221.699 14.7891 221.398 15.0234 221.156 15.3203C220.914 15.6172 220.723 15.9609 220.582 16.3516C220.449 16.7422 220.359 17.1641 220.312 17.6172V19.7383C220.383 20.3242 220.531 20.8633 220.758 21.3555C220.992 21.8398 221.32 22.2305 221.742 22.5273C222.164 22.8164 222.707 22.9609 223.371 22.9609C223.895 22.9609 224.336 22.8555 224.695 22.6445C225.055 22.4336 225.34 22.1406 225.551 21.7656C225.77 21.3828 225.926 20.9375 226.02 20.4297C226.121 19.9219 226.172 19.375 226.172 18.7891ZM238.5 21.5664C238.5 21.2852 238.43 21.0312 238.289 20.8047C238.148 20.5703 237.879 20.3594 237.48 20.1719C237.09 19.9844 236.512 19.8125 235.746 19.6562C235.074 19.5078 234.457 19.332 233.895 19.1289C233.34 18.918 232.863 18.6641 232.465 18.3672C232.066 18.0703 231.758 17.7188 231.539 17.3125C231.32 16.9062 231.211 16.4375 231.211 15.9062C231.211 15.3906 231.324 14.9023 231.551 14.4414C231.777 13.9805 232.102 13.5742 232.523 13.2227C232.945 12.8711 233.457 12.5938 234.059 12.3906C234.668 12.1875 235.348 12.0859 236.098 12.0859C237.16 12.0859 238.07 12.2656 238.828 12.625C239.594 12.9766 240.18 13.457 240.586 14.0664C240.992 14.668 241.195 15.3477 241.195 16.1055H238.371C238.371 15.7695 238.285 15.457 238.113 15.168C237.949 14.8711 237.699 14.6328 237.363 14.4531C237.027 14.2656 236.605 14.1719 236.098 14.1719C235.613 14.1719 235.211 14.25 234.891 14.4062C234.578 14.5547 234.344 14.75 234.188 14.9922C234.039 15.2344 233.965 15.5 233.965 15.7891C233.965 16 234.004 16.1914 234.082 16.3633C234.168 16.5273 234.309 16.6797 234.504 16.8203C234.699 16.9531 234.965 17.0781 235.301 17.1953C235.645 17.3125 236.074 17.4258 236.59 17.5352C237.559 17.7383 238.391 18 239.086 18.3203C239.789 18.6328 240.328 19.0391 240.703 19.5391C241.078 20.0312 241.266 20.6562 241.266 21.4141C241.266 21.9766 241.145 22.4922 240.902 22.9609C240.668 23.4219 240.324 23.8242 239.871 24.168C239.418 24.5039 238.875 24.7656 238.242 24.9531C237.617 25.1406 236.914 25.2344 236.133 25.2344C234.984 25.2344 234.012 25.0312 233.215 24.625C232.418 24.2109 231.812 23.6836 231.398 23.043C230.992 22.3945 230.789 21.7227 230.789 21.0273H233.52C233.551 21.5508 233.695 21.9688 233.953 22.2812C234.219 22.5859 234.547 22.8086 234.938 22.9492C235.336 23.082 235.746 23.1484 236.168 23.1484C236.676 23.1484 237.102 23.082 237.445 22.9492C237.789 22.8086 238.051 22.6211 238.23 22.3867C238.41 22.1445 238.5 21.8711 238.5 21.5664ZM246.762 12.3203V25H243.926V12.3203H246.762ZM243.738 8.99219C243.738 8.5625 243.879 8.20703 244.16 7.92578C244.449 7.63672 244.848 7.49219 245.355 7.49219C245.855 7.49219 246.25 7.63672 246.539 7.92578C246.828 8.20703 246.973 8.5625 246.973 8.99219C246.973 9.41406 246.828 9.76562 246.539 10.0469C246.25 10.3281 245.855 10.4688 245.355 10.4688C244.848 10.4688 244.449 10.3281 244.16 10.0469C243.879 9.76562 243.738 9.41406 243.738 8.99219ZM255.668 12.3203V14.3828H248.52V12.3203H255.668ZM250.582 9.21484H253.406V21.4961C253.406 21.8867 253.461 22.1875 253.57 22.3984C253.688 22.6016 253.848 22.7383 254.051 22.8086C254.254 22.8789 254.492 22.9141 254.766 22.9141C254.961 22.9141 255.148 22.9023 255.328 22.8789C255.508 22.8555 255.652 22.832 255.762 22.8086L255.773 24.9648C255.539 25.0352 255.266 25.0977 254.953 25.1523C254.648 25.207 254.297 25.2344 253.898 25.2344C253.25 25.2344 252.676 25.1211 252.176 24.8945C251.676 24.6602 251.285 24.2812 251.004 23.7578C250.723 23.2344 250.582 22.5391 250.582 21.6719V9.21484ZM263.438 25.2344C262.5 25.2344 261.652 25.082 260.895 24.7773C260.145 24.4648 259.504 24.0312 258.973 23.4766C258.449 22.9219 258.047 22.2695 257.766 21.5195C257.484 20.7695 257.344 19.9609 257.344 19.0938V18.625C257.344 17.6328 257.488 16.7344 257.777 15.9297C258.066 15.125 258.469 14.4375 258.984 13.8672C259.5 13.2891 260.109 12.8477 260.812 12.543C261.516 12.2383 262.277 12.0859 263.098 12.0859C264.004 12.0859 264.797 12.2383 265.477 12.543C266.156 12.8477 266.719 13.2773 267.164 13.832C267.617 14.3789 267.953 15.0312 268.172 15.7891C268.398 16.5469 268.512 17.3828 268.512 18.2969V19.5039H258.715V17.4766H265.723V17.2539C265.707 16.7461 265.605 16.2695 265.418 15.8242C265.238 15.3789 264.961 15.0195 264.586 14.7461C264.211 14.4727 263.711 14.3359 263.086 14.3359C262.617 14.3359 262.199 14.4375 261.832 14.6406C261.473 14.8359 261.172 15.1211 260.93 15.4961C260.688 15.8711 260.5 16.3242 260.367 16.8555C260.242 17.3789 260.18 17.9688 260.18 18.625V19.0938C260.18 19.6484 260.254 20.1641 260.402 20.6406C260.559 21.1094 260.785 21.5195 261.082 21.8711C261.379 22.2227 261.738 22.5 262.16 22.7031C262.582 22.8984 263.062 22.9961 263.602 22.9961C264.281 22.9961 264.887 22.8594 265.418 22.5859C265.949 22.3125 266.41 21.9258 266.801 21.4258L268.289 22.8672C268.016 23.2656 267.66 23.6484 267.223 24.0156C266.785 24.375 266.25 24.668 265.617 24.8945C264.992 25.1211 264.266 25.2344 263.438 25.2344ZM277.828 21.5664C277.828 21.2852 277.758 21.0312 277.617 20.8047C277.477 20.5703 277.207 20.3594 276.809 20.1719C276.418 19.9844 275.84 19.8125 275.074 19.6562C274.402 19.5078 273.785 19.332 273.223 19.1289C272.668 18.918 272.191 18.6641 271.793 18.3672C271.395 18.0703 271.086 17.7188 270.867 17.3125C270.648 16.9062 270.539 16.4375 270.539 15.9062C270.539 15.3906 270.652 14.9023 270.879 14.4414C271.105 13.9805 271.43 13.5742 271.852 13.2227C272.273 12.8711 272.785 12.5938 273.387 12.3906C273.996 12.1875 274.676 12.0859 275.426 12.0859C276.488 12.0859 277.398 12.2656 278.156 12.625C278.922 12.9766 279.508 13.457 279.914 14.0664C280.32 14.668 280.523 15.3477 280.523 16.1055H277.699C277.699 15.7695 277.613 15.457 277.441 15.168C277.277 14.8711 277.027 14.6328 276.691 14.4531C276.355 14.2656 275.934 14.1719 275.426 14.1719C274.941 14.1719 274.539 14.25 274.219 14.4062C273.906 14.5547 273.672 14.75 273.516 14.9922C273.367 15.2344 273.293 15.5 273.293 15.7891C273.293 16 273.332 16.1914 273.41 16.3633C273.496 16.5273 273.637 16.6797 273.832 16.8203C274.027 16.9531 274.293 17.0781 274.629 17.1953C274.973 17.3125 275.402 17.4258 275.918 17.5352C276.887 17.7383 277.719 18 278.414 18.3203C279.117 18.6328 279.656 19.0391 280.031 19.5391C280.406 20.0312 280.594 20.6562 280.594 21.4141C280.594 21.9766 280.473 22.4922 280.23 22.9609C279.996 23.4219 279.652 23.8242 279.199 24.168C278.746 24.5039 278.203 24.7656 277.57 24.9531C276.945 25.1406 276.242 25.2344 275.461 25.2344C274.312 25.2344 273.34 25.0312 272.543 24.625C271.746 24.2109 271.141 23.6836 270.727 23.043C270.32 22.3945 270.117 21.7227 270.117 21.0273H272.848C272.879 21.5508 273.023 21.9688 273.281 22.2812C273.547 22.5859 273.875 22.8086 274.266 22.9492C274.664 23.082 275.074 23.1484 275.496 23.1484C276.004 23.1484 276.43 23.082 276.773 22.9492C277.117 22.8086 277.379 22.6211 277.559 22.3867C277.738 22.1445 277.828 21.8711 277.828 21.5664Z" fill="white"/>
<defs>
<linearGradient id="paint0_linear_0_1" x1="63" y1="32.8691" x2="0.000348342" y2="-0.000667647" gradientUnits="userSpaceOnUse">
<stop stop-color="#A603A1"/>
<stop offset="0.5" stop-color="#9D0298"/>
<stop offset="1" stop-color="#93038F"/>
</linearGradient>
</defs>
</svg>
